<svg width="406" height="143" viewBox="0 0 406 143" fill="none" xmlns="http://www.w3.org/2000/svg">
<rect width="405.417" height="142.378" rx="26.6092" fill="#7CBF42"/>
<path d="M128.473 60.8388C123.764 60.8388 119.869 59.2839 116.789 56.1742C113.709 53.0645 112.169 49.2589 112.169 44.7572C112.169 40.2556 113.709 36.4499 116.789 33.3402C119.869 30.2305 123.764 28.6757 128.473 28.6757C131.345 28.6757 133.981 29.3717 136.38 30.7636C138.779 32.126 140.63 33.977 141.933 36.3166L139.179 37.9159C138.202 36.0205 136.75 34.5101 134.825 33.3847C132.9 32.2592 130.783 31.6965 128.473 31.6965C124.593 31.6965 121.424 32.9552 118.966 35.4726C116.508 37.99 115.279 41.0848 115.279 44.7572C115.279 48.4296 116.508 51.5245 118.966 54.0419C121.424 56.5592 124.593 57.8179 128.473 57.8179C130.783 57.8179 132.9 57.2552 134.825 56.1298C136.75 55.0044 138.202 53.494 139.179 51.5985L141.933 53.1534C140.66 55.4931 138.809 57.3589 136.38 58.7508C133.981 60.1428 131.345 60.8388 128.473 60.8388ZM164.55 60.3057H160.641L149.535 49.5995V60.3057H146.603V38.0936H149.535V47.9113L160.108 38.0936H164.106L152.645 48.7554L164.55 60.3057ZM185.444 38.0936H188.376V60.3057H185.444V55.9521C183.401 59.2099 180.41 60.8388 176.471 60.8388C173.302 60.8388 170.592 59.7133 168.341 57.4625C166.12 55.2117 165.009 52.4574 165.009 49.1996C165.009 45.9419 166.12 43.1876 168.341 40.9368C170.592 38.6859 173.302 37.5605 176.471 37.5605C180.41 37.5605 183.401 39.1894 185.444 42.4472V38.0936ZM170.474 55.4634C172.162 57.1516 174.235 57.9956 176.693 57.9956C179.151 57.9956 181.224 57.1516 182.912 55.4634C184.6 53.7457 185.444 51.6578 185.444 49.1996C185.444 46.7415 184.6 44.6684 182.912 42.9803C181.224 41.2625 179.151 40.4037 176.693 40.4037C174.235 40.4037 172.162 41.2625 170.474 42.9803C168.785 44.6684 167.941 46.7415 167.941 49.1996C167.941 51.6578 168.785 53.7457 170.474 55.4634ZM208.978 38.0936H211.91V60.3057H208.978V51.8651C207.26 52.7536 205.143 53.1978 202.625 53.1978C199.723 53.1978 197.502 52.5314 195.962 51.1987C194.451 49.8364 193.696 47.8373 193.696 45.2015V38.0936H196.628V45.2015C196.628 47.0673 197.117 48.4148 198.094 49.2441C199.071 50.0437 200.552 50.4435 202.536 50.4435C204.846 50.4435 206.994 50.0141 208.978 49.1552V38.0936ZM237.244 38.0936H240.176V60.3057H237.244V55.9521C235.2 59.2099 232.209 60.8388 228.27 60.8388C225.101 60.8388 222.391 59.7133 220.14 57.4625C217.919 55.2117 216.809 52.4574 216.809 49.1996C216.809 45.9419 217.919 43.1876 220.14 40.9368C222.391 38.6859 225.101 37.5605 228.27 37.5605C232.209 37.5605 235.2 39.1894 237.244 42.4472V38.0936ZM222.273 55.4634C223.961 57.1516 226.034 57.9956 228.492 57.9956C230.95 57.9956 233.023 57.1516 234.711 55.4634C236.4 53.7457 237.244 51.6578 237.244 49.1996C237.244 46.7415 236.4 44.6684 234.711 42.9803C233.023 41.2625 230.95 40.4037 228.492 40.4037C226.034 40.4037 223.961 41.2625 222.273 42.9803C220.585 44.6684 219.741 46.7415 219.741 49.1996C219.741 51.6578 220.585 53.7457 222.273 55.4634ZM262.376 38.0936V40.9368H254.513V60.3057H251.581V40.9368H243.718V38.0936H262.376ZM274.967 46.5342C277.041 46.5342 278.788 47.1857 280.209 48.4889C281.661 49.7623 282.386 51.406 282.386 53.4199C282.386 55.4338 281.661 57.0923 280.209 58.3954C278.788 59.6689 277.041 60.3057 274.967 60.3057H265.949V38.0936H268.881V46.5342H274.967ZM274.967 57.4625C276.211 57.4625 277.263 57.0923 278.121 56.3519C279.01 55.6115 279.454 54.6342 279.454 53.4199C279.454 52.2057 279.01 51.2283 278.121 50.4879C277.263 49.7475 276.211 49.3773 274.967 49.3773H268.881V57.4625H274.967ZM95.7182 90.0936V112.306H92.7862V92.9368H79.992V112.306H77.0601V90.0936H95.7182ZM113.824 89.5605C116.993 89.5605 119.688 90.6859 121.909 92.9368C124.16 95.1876 125.286 97.9419 125.286 101.2C125.286 104.457 124.16 107.212 121.909 109.463C119.688 111.713 116.993 112.839 113.824 112.839C109.885 112.839 106.894 111.21 104.85 107.952V121.19H101.918V90.0936H104.85V94.4472C106.894 91.1894 109.885 89.5605 113.824 89.5605ZM107.383 107.463C109.071 109.152 111.144 109.996 113.602 109.996C116.06 109.996 118.133 109.152 119.821 107.463C121.509 105.746 122.354 103.658 122.354 101.2C122.354 98.7415 121.509 96.6684 119.821 94.9803C118.133 93.2625 116.06 92.4037 113.602 92.4037C111.144 92.4037 109.071 93.2625 107.383 94.9803C105.695 96.6684 104.85 98.7415 104.85 101.2C104.85 103.658 105.695 105.746 107.383 107.463ZM146.331 90.0936H148.819V112.306H145.887V95.2024L132.648 112.306H130.161V90.0936H133.093V107.197L146.331 90.0936ZM173.233 90.0936V112.306H170.301V92.9368H160.261V102.843C160.261 106.545 159.55 109.092 158.129 110.484C156.737 111.876 154.812 112.483 152.354 112.306V109.551C154.042 109.729 155.286 109.329 156.085 108.352C156.915 107.375 157.329 105.538 157.329 102.843V90.0936H173.233ZM198.057 109.507C195.807 111.728 193.052 112.839 189.795 112.839C186.537 112.839 183.768 111.728 181.487 109.507C179.236 107.256 178.111 104.487 178.111 101.2C178.111 97.9123 179.236 95.158 181.487 92.9368C183.768 90.6859 186.537 89.5605 189.795 89.5605C193.052 89.5605 195.807 90.6859 198.057 92.9368C200.338 95.158 201.478 97.9123 201.478 101.2C201.478 104.487 200.338 107.256 198.057 109.507ZM183.575 107.463C185.263 109.152 187.336 109.996 189.795 109.996C192.253 109.996 194.326 109.152 196.014 107.463C197.702 105.746 198.546 103.658 198.546 101.2C198.546 98.7415 197.702 96.6684 196.014 94.9803C194.326 93.2625 192.253 92.4037 189.795 92.4037C187.336 92.4037 185.263 93.2625 183.575 94.9803C181.887 96.6684 181.043 98.7415 181.043 101.2C181.043 103.658 181.887 105.746 183.575 107.463ZM230.55 112.306H226.996L217.933 101.599V112.306H215.001V101.599L205.939 112.306H202.385L212.336 100.755L202.829 90.0936H206.383L215.001 99.9558V90.0936H217.933V99.9558L226.551 90.0936H230.105L220.599 100.755L230.55 112.306ZM243.023 89.5605C246.311 89.5605 248.961 90.7304 250.975 93.07C253.019 95.3801 254.04 98.1196 254.04 101.288C254.04 101.614 254.011 102.073 253.952 102.666H234.449C234.746 104.916 235.693 106.708 237.293 108.041C238.921 109.344 240.921 109.996 243.29 109.996C244.978 109.996 246.429 109.655 247.643 108.974C248.887 108.263 249.82 107.345 250.442 106.22L253.019 107.73C252.041 109.3 250.709 110.544 249.021 111.462C247.332 112.38 245.407 112.839 243.245 112.839C239.751 112.839 236.908 111.743 234.716 109.551C232.524 107.36 231.429 104.576 231.429 101.2C231.429 97.8826 232.51 95.1135 234.672 92.8923C236.834 90.6711 239.617 89.5605 243.023 89.5605ZM243.023 92.4037C240.713 92.4037 238.773 93.0996 237.204 94.4916C235.664 95.8539 234.746 97.6309 234.449 99.8225H251.02C250.723 97.4828 249.82 95.6614 248.31 94.3583C246.799 93.0552 245.037 92.4037 243.023 92.4037ZM274.43 90.0936H277.362V112.306H274.43V102.621H261.636V112.306H258.704V90.0936H261.636V99.7781H274.43V90.0936ZM299.733 90.0936H302.221V112.306H299.289V95.2024L286.051 112.306H283.563V90.0936H286.495V107.197L299.733 90.0936ZM318.683 89.5605C321.971 89.5605 324.621 90.7304 326.635 93.07C328.679 95.3801 329.7 98.1196 329.7 101.288C329.7 101.614 329.671 102.073 329.611 102.666H310.109C310.405 104.916 311.353 106.708 312.952 108.041C314.581 109.344 316.58 109.996 318.95 109.996C320.638 109.996 322.089 109.655 323.303 108.974C324.547 108.263 325.48 107.345 326.102 106.22L328.679 107.73C327.701 109.3 326.369 110.544 324.68 111.462C322.992 112.38 321.067 112.839 318.905 112.839C315.411 112.839 312.567 111.743 310.376 109.551C308.184 107.36 307.088 104.576 307.088 101.2C307.088 97.8826 308.169 95.1135 310.331 92.8923C312.493 90.6711 315.277 89.5605 318.683 89.5605ZM318.683 92.4037C316.373 92.4037 314.433 93.0996 312.864 94.4916C311.324 95.8539 310.405 97.6309 310.109 99.8225H326.679C326.383 97.4828 325.48 95.6614 323.97 94.3583C322.459 93.0552 320.697 92.4037 318.683 92.4037Z" fill="white"/>
</svg>
