<svg width="546" height="127" viewBox="0 0 546 127" fill="none" xmlns="http://www.w3.org/2000/svg">
<rect width="546" height="127" rx="30.5487" fill="#FF7A00"/>
<path d="M82.2474 80.714C76.8753 80.714 72.4382 78.929 68.9362 75.3589C65.4341 71.7888 63.683 67.3857 63.683 62.1496C63.683 56.8795 65.4341 52.4764 68.9362 48.9403C72.4382 45.3702 76.8753 43.5852 82.2474 43.5852C85.4775 43.5852 88.4526 44.3502 91.1726 45.8802C93.9267 47.3763 96.0688 49.4163 97.5988 52.0004L91.5297 55.5195C90.6456 53.9214 89.3876 52.6804 87.7556 51.7964C86.1235 50.8784 84.2875 50.4193 82.2474 50.4193C78.7794 50.4193 75.9743 51.5074 73.8323 53.6834C71.7242 55.8595 70.6702 58.6815 70.6702 62.1496C70.6702 65.5837 71.7242 68.3887 73.8323 70.5648C75.9743 72.7408 78.7794 73.8289 82.2474 73.8289C84.2875 73.8289 86.1235 73.3869 87.7556 72.5028C89.4216 71.5848 90.6796 70.3438 91.5297 68.7798L97.5988 72.2988C96.0688 74.8829 93.9437 76.9399 91.2236 78.47C88.5036 79.966 85.5115 80.714 82.2474 80.714ZM120.375 66.9437C122.755 68.0997 123.945 70.0378 123.945 72.7578C123.945 74.8999 123.197 76.6509 121.701 78.011C120.239 79.337 118.148 80 115.428 80H102.015V54.4994H114.408C117.094 54.4994 119.168 55.1625 120.63 56.4885C122.126 57.8145 122.874 59.5485 122.874 61.6906C122.874 63.9346 122.041 65.6857 120.375 66.9437ZM113.796 59.9056H108.186V64.4957H113.796C115.666 64.4957 116.601 63.7306 116.601 62.2006C116.601 60.6706 115.666 59.9056 113.796 59.9056ZM114.663 74.4409C116.567 74.4409 117.519 73.6249 117.519 71.9928C117.519 71.2788 117.264 70.7178 116.754 70.3098C116.244 69.9018 115.547 69.6978 114.663 69.6978H108.186V74.4409H114.663ZM147.519 54.4994V80H141.092V72.0438H138.797L132.932 80H125.333L131.708 71.2788C130.076 70.5988 128.767 69.5278 127.781 68.0657C126.829 66.5697 126.353 64.9717 126.353 63.2716C126.353 60.8916 127.203 58.8345 128.903 57.1005C130.603 55.3665 132.83 54.4994 135.584 54.4994H147.519ZM136.094 60.3646C135.142 60.3646 134.343 60.6536 133.697 61.2316C133.085 61.7756 132.779 62.5236 132.779 63.4756C132.779 64.3937 133.085 65.1247 133.697 65.6687C134.343 66.2127 135.142 66.4847 136.094 66.4847H141.092V60.3646H136.094ZM168.457 66.9947C171.041 68.2527 172.333 70.2758 172.333 73.0638C172.333 75.2399 171.432 77.0589 169.63 78.521C167.828 79.983 165.295 80.714 162.031 80.714C156.863 80.714 153.344 78.674 151.474 74.5939L156.829 71.4318C157.645 73.7439 159.396 74.8999 162.082 74.8999C163.306 74.8999 164.241 74.6619 164.887 74.1859C165.567 73.7099 165.907 73.0638 165.907 72.2478C165.907 70.6838 164.904 69.9018 162.898 69.9018H159.277V64.2917H162.031C164.003 64.2917 164.989 63.5096 164.989 61.9456C164.989 61.1976 164.7 60.6026 164.122 60.1606C163.544 59.7186 162.779 59.4975 161.827 59.4975C159.617 59.4975 158.036 60.5686 157.084 62.7106L151.78 59.6506C153.718 55.7405 157.033 53.7854 161.725 53.7854C164.649 53.7854 166.961 54.5334 168.661 56.0295C170.395 57.4915 171.262 59.2765 171.262 61.3846C171.262 63.8666 170.327 65.7367 168.457 66.9947ZM195.855 54.4994H202.434V80H195.855V76.9909C193.883 79.473 191.112 80.714 187.542 80.714C184.142 80.714 181.218 79.422 178.769 76.8379C176.355 74.2199 175.148 71.0238 175.148 67.2497C175.148 63.4756 176.355 60.2966 178.769 57.7125C181.218 55.0945 184.142 53.7854 187.542 53.7854C191.112 53.7854 193.883 55.0265 195.855 57.5085V54.4994ZM183.717 72.4518C185.043 73.7779 186.726 74.4409 188.766 74.4409C190.806 74.4409 192.489 73.7779 193.815 72.4518C195.175 71.0918 195.855 69.3578 195.855 67.2497C195.855 65.1417 195.175 63.4246 193.815 62.0986C192.489 60.7386 190.806 60.0586 188.766 60.0586C186.726 60.0586 185.043 60.7386 183.717 62.0986C182.391 63.4246 181.728 65.1417 181.728 67.2497C181.728 69.3578 182.391 71.0918 183.717 72.4518ZM228.494 54.4994V60.8236H220.538V80H213.959V60.8236H205.901V54.4994H228.494ZM243.534 62.6596C246.424 62.6596 248.753 63.4586 250.521 65.0567C252.289 66.6207 253.173 68.7118 253.173 71.3298C253.173 73.9479 252.289 76.0559 250.521 77.6539C248.753 79.218 246.424 80 243.534 80H232.008V54.4994H238.587V62.6596H243.534ZM243.585 74.1859C244.503 74.1859 245.251 73.9309 245.829 73.4209C246.441 72.8768 246.747 72.1798 246.747 71.3298C246.747 70.4798 246.441 69.7828 245.829 69.2388C245.251 68.6948 244.503 68.4227 243.585 68.4227H238.587V74.1859H243.585ZM269.198 80.714C265.356 80.714 262.143 79.422 259.559 76.8379C257.009 74.2539 255.734 71.0578 255.734 67.2497C255.734 63.4416 257.009 60.2456 259.559 57.6615C262.143 55.0775 265.356 53.7854 269.198 53.7854C271.68 53.7854 273.942 54.3804 275.982 55.5705C278.022 56.7605 279.569 58.3585 280.623 60.3646L274.962 63.6796C274.452 62.6256 273.67 61.7926 272.616 61.1806C271.595 60.5686 270.439 60.2626 269.147 60.2626C267.175 60.2626 265.543 60.9256 264.251 62.2516C262.959 63.5436 262.313 65.2097 262.313 67.2497C262.313 69.2558 262.959 70.9218 264.251 72.2478C265.543 73.5399 267.175 74.1859 269.147 74.1859C270.473 74.1859 271.646 73.8969 272.667 73.3189C273.721 72.7068 274.503 71.8738 275.013 70.8198L280.725 74.0839C279.603 76.0899 278.022 77.7049 275.982 78.929C273.942 80.119 271.68 80.714 269.198 80.714ZM304.307 54.4994V80H297.881V72.0438H295.586L289.721 80H282.122L288.497 71.2788C286.865 70.5988 285.556 69.5278 284.57 68.0657C283.618 66.5697 283.142 64.9717 283.142 63.2716C283.142 60.8916 283.992 58.8345 285.692 57.1005C287.392 55.3665 289.619 54.4994 292.373 54.4994H304.307ZM292.883 60.3646C291.931 60.3646 291.132 60.6536 290.486 61.2316C289.874 61.7756 289.568 62.5236 289.568 63.4756C289.568 64.3937 289.874 65.1247 290.486 65.6687C291.132 66.2127 291.931 66.4847 292.883 66.4847H297.881V60.3646H292.883ZM335.191 80.714C331.349 80.714 328.136 79.422 325.552 76.8379C323.002 74.2539 321.727 71.0578 321.727 67.2497C321.727 63.4416 323.002 60.2456 325.552 57.6615C328.136 55.0775 331.349 53.7854 335.191 53.7854C337.673 53.7854 339.934 54.3804 341.974 55.5705C344.014 56.7605 345.561 58.3585 346.615 60.3646L340.954 63.6796C340.444 62.6256 339.662 61.7926 338.608 61.1806C337.588 60.5686 336.432 60.2626 335.14 60.2626C333.168 60.2626 331.536 60.9256 330.244 62.2516C328.952 63.5436 328.306 65.2097 328.306 67.2497C328.306 69.2558 328.952 70.9218 330.244 72.2478C331.536 73.5399 333.168 74.1859 335.14 74.1859C336.466 74.1859 337.639 73.8969 338.659 73.3189C339.713 72.7068 340.495 71.8738 341.005 70.8198L346.717 74.0839C345.595 76.0899 344.014 77.7049 341.974 78.929C339.934 80.119 337.673 80.714 335.191 80.714ZM379.875 54.4994H386.454V80H379.875V70.3098H369.726V80H363.146V54.4994H369.726V64.1387H379.875V54.4994ZM411.863 54.4994H418.442V80H411.863V76.9909C409.89 79.473 407.119 80.714 403.549 80.714C400.149 80.714 397.225 79.422 394.777 76.8379C392.363 74.2199 391.156 71.0238 391.156 67.2497C391.156 63.4756 392.363 60.2966 394.777 57.7125C397.225 55.0945 400.149 53.7854 403.549 53.7854C407.119 53.7854 409.89 55.0265 411.863 57.5085V54.4994ZM399.724 72.4518C401.05 73.7779 402.733 74.4409 404.773 74.4409C406.813 74.4409 408.496 73.7779 409.822 72.4518C411.183 71.0918 411.863 69.3578 411.863 67.2497C411.863 65.1417 411.183 63.4246 409.822 62.0986C408.496 60.7386 406.813 60.0586 404.773 60.0586C402.733 60.0586 401.05 60.7386 399.724 62.0986C398.398 63.4246 397.735 65.1417 397.735 67.2497C397.735 69.3578 398.398 71.0918 399.724 72.4518ZM450.928 54.4994V80H444.553V65.1077L438.076 75.3079H437.26L430.732 65.0057V80H424.408V54.4994H430.885L437.668 65.2097L444.451 54.4994H450.928ZM475.342 54.4994H480.238V80H473.812V65.5157L461.827 80H456.931V54.4994H463.357V68.9838L475.342 54.4994Z" fill="white"/>
</svg>
